<svg viewBox="0 0 971.25 400" xmlns="http://www.w3.org/2000/svg"><g><g><g><g><g><line x1="78.03125" y1="377.828125" x2="73.03125" y2="377.828125" style="visibility: inherit;" fill="rgb(0, 0, 0)" stroke="rgb(204, 204, 204)" stroke-width="1px"></line><line x1="78.03125" y1="340.0453125" x2="73.03125" y2="340.0453125" style="visibility: inherit;" fill="rgb(0, 0, 0)" stroke="rgb(204, 204, 204)" stroke-width="1px"></line><line x1="78.03125" y1="302.2625" x2="73.03125" y2="302.2625" style="visibility: inherit;" fill="rgb(0, 0, 0)" stroke="rgb(204, 204, 204)" stroke-width="1px"></line><line x1="78.03125" y1="264.4796875" x2="73.03125" y2="264.4796875" style="visibility: inherit;" fill="rgb(0, 0, 0)" stroke="rgb(204, 204, 204)" stroke-width="1px"></line><line x1="78.03125" y1="226.696875" x2="73.03125" y2="226.696875" style="visibility: inherit;" fill="rgb(0, 0, 0)" stroke="rgb(204, 204, 204)" stroke-width="1px"></line><line x1="78.03125" y1="188.9140625" x2="73.03125" y2="188.9140625" style="visibility: inherit;" fill="rgb(0, 0, 0)" stroke="rgb(204, 204, 204)" stroke-width="1px"></line><line x1="78.03125" y1="151.13125" x2="73.03125" y2="151.13125" style="visibility: inherit;" fill="rgb(0, 0, 0)" stroke="rgb(204, 204, 204)" stroke-width="1px"></line><line x1="78.03125" y1="113.34843749999999" x2="73.03125" y2="113.34843749999999" style="visibility: inherit;" fill="rgb(0, 0, 0)" stroke="rgb(204, 204, 204)" stroke-width="1px"></line><line x1="78.03125" y1="75.56562500000001" x2="73.03125" y2="75.56562500000001" style="visibility: inherit;" fill="rgb(0, 0, 0)" stroke="rgb(204, 204, 204)" stroke-width="1px"></line><line x1="78.03125" y1="37.78281249999998" x2="73.03125" y2="37.78281249999998" style="visibility: inherit;" fill="rgb(0, 0, 0)" stroke="rgb(204, 204, 204)" stroke-width="1px"></line><line x1="78.03125" y1="0" x2="73.03125" y2="0" style="visibility: inherit;" fill="rgb(0, 0, 0)" stroke="rgb(204, 204, 204)" stroke-width="1px"></line></g><g transform="translate(68.03125, 0)"><text x="0" y="377.828125" dx="0em" dy="0.3em" style="text-anchor: end; visibility: hidden; font-family: &quot;Helvetica Neue&quot;, sans-serif; font-size: 12px; font-weight: 200;" fill="rgb(50, 49, 63)" stroke="none" stroke-width="1px">-1.5e+3</text><text x="0" y="340.0453125" dx="0em" dy="0.3em" style="text-anchor: end; visibility: inherit; font-family: &quot;Helvetica Neue&quot;, sans-serif; font-size: 12px; font-weight: 200;" fill="rgb(50, 49, 63)" stroke="none" stroke-width="1px">-1e+3</text><text x="0" y="302.2625" dx="0em" dy="0.3em" style="text-anchor: end; visibility: inherit; font-family: &quot;Helvetica Neue&quot;, sans-serif; font-size: 12px; font-weight: 200;" fill="rgb(50, 49, 63)" stroke="none" stroke-width="1px">-500</text><text x="0" y="264.4796875" dx="0em" dy="0.3em" style="text-anchor: end; visibility: inherit; font-family: &quot;Helvetica Neue&quot;, sans-serif; font-size: 12px; font-weight: 200;" fill="rgb(50, 49, 63)" stroke="none" stroke-width="1px">0</text><text x="0" y="226.696875" dx="0em" dy="0.3em" style="text-anchor: end; visibility: inherit; font-family: &quot;Helvetica Neue&quot;, sans-serif; font-size: 12px; font-weight: 200;" fill="rgb(50, 49, 63)" stroke="none" stroke-width="1px">500</text><text x="0" y="188.9140625" dx="0em" dy="0.3em" style="text-anchor: end; visibility: inherit; font-family: &quot;Helvetica Neue&quot;, sans-serif; font-size: 12px; font-weight: 200;" fill="rgb(50, 49, 63)" stroke="none" stroke-width="1px">1e+3</text><text x="0" y="151.13125" dx="0em" dy="0.3em" style="text-anchor: end; visibility: inherit; font-family: &quot;Helvetica Neue&quot;, sans-serif; font-size: 12px; font-weight: 200;" fill="rgb(50, 49, 63)" stroke="none" stroke-width="1px">1.5e+3</text><text x="0" y="113.34843749999999" dx="0em" dy="0.3em" style="text-anchor: end; visibility: inherit; font-family: &quot;Helvetica Neue&quot;, sans-serif; font-size: 12px; font-weight: 200;" fill="rgb(50, 49, 63)" stroke="none" stroke-width="1px">2e+3</text><text x="0" y="75.56562500000001" dx="0em" dy="0.3em" style="text-anchor: end; visibility: inherit; font-family: &quot;Helvetica Neue&quot;, sans-serif; font-size: 12px; font-weight: 200;" fill="rgb(50, 49, 63)" stroke="none" stroke-width="1px">2.5e+3</text><text x="0" y="37.78281249999998" dx="0em" dy="0.3em" style="text-anchor: end; visibility: inherit; font-family: &quot;Helvetica Neue&quot;, sans-serif; font-size: 12px; font-weight: 200;" fill="rgb(50, 49, 63)" stroke="none" stroke-width="1px">3e+3</text><text x="0" y="0" dx="0em" dy="0.3em" style="text-anchor: end; visibility: hidden; font-family: &quot;Helvetica Neue&quot;, sans-serif; font-size: 12px; font-weight: 200;" fill="rgb(50, 49, 63)" stroke="none" stroke-width="1px">3.5e+3</text></g><line x1="78.03125" y1="0" x2="78.03125" y2="377.828125" fill="rgb(0, 0, 0)" stroke="rgb(204, 204, 204)" stroke-width="1px"></line></g></g><g transform="translate(78, 0)" clip-path="url(#clip_0)"><clipPath id="clip_0"><rect width="893" height="377"></rect></clipPath><g><g><g><line x1="0" y1="0" x2="0" y2="377.828125" fill="rgb(0, 0, 0)" stroke="rgb(60, 60, 60)" stroke-width="1px" opacity="0.25"></line><line x1="111.65234375" y1="0" x2="111.65234375" y2="377.828125" fill="rgb(0, 0, 0)" stroke="rgb(60, 60, 60)" stroke-width="1px" opacity="0.25"></line><line x1="223.3046875" y1="0" x2="223.3046875" y2="377.828125" fill="rgb(0, 0, 0)" stroke="rgb(60, 60, 60)" stroke-width="1px" opacity="0.25"></line><line x1="334.95703125" y1="0" x2="334.95703125" y2="377.828125" fill="rgb(0, 0, 0)" stroke="rgb(60, 60, 60)" stroke-width="1px" opacity="0.25"></line><line x1="446.609375" y1="0" x2="446.609375" y2="377.828125" fill="rgb(0, 0, 0)" stroke="rgb(60, 60, 60)" stroke-width="1px" opacity="0.25"></line><line x1="558.26171875" y1="0" x2="558.26171875" y2="377.828125" fill="rgb(0, 0, 0)" stroke="rgb(60, 60, 60)" stroke-width="1px" opacity="0.25"></line><line x1="669.9140625" y1="0" x2="669.9140625" y2="377.828125" fill="rgb(0, 0, 0)" stroke="rgb(60, 60, 60)" stroke-width="1px" opacity="0.25"></line><line x1="781.56640625" y1="0" x2="781.56640625" y2="377.828125" fill="rgb(0, 0, 0)" stroke="rgb(60, 60, 60)" stroke-width="1px" opacity="0.25"></line><line x1="893.21875" y1="0" x2="893.21875" y2="377.828125" fill="rgb(0, 0, 0)" stroke="rgb(60, 60, 60)" stroke-width="1px" opacity="0.25"></line></g><g><line x1="0" y1="377.828125" x2="893.21875" y2="377.828125" fill="rgb(0, 0, 0)" stroke="rgb(60, 60, 60)" stroke-width="1px" opacity="0.25"></line><line x1="0" y1="340.0453125" x2="893.21875" y2="340.0453125" fill="rgb(0, 0, 0)" stroke="rgb(60, 60, 60)" stroke-width="1px" opacity="0.25"></line><line x1="0" y1="302.2625" x2="893.21875" y2="302.2625" fill="rgb(0, 0, 0)" stroke="rgb(60, 60, 60)" stroke-width="1px" opacity="0.25"></line><line x1="0" y1="264.4796875" x2="893.21875" y2="264.4796875" fill="rgb(0, 0, 0)" stroke="rgb(60, 60, 60)" stroke-width="1px" opacity="0.25"></line><line x1="0" y1="226.696875" x2="893.21875" y2="226.696875" fill="rgb(0, 0, 0)" stroke="rgb(60, 60, 60)" stroke-width="1px" opacity="0.25"></line><line x1="0" y1="188.9140625" x2="893.21875" y2="188.9140625" fill="rgb(0, 0, 0)" stroke="rgb(60, 60, 60)" stroke-width="1px" opacity="0.25"></line><line x1="0" y1="151.13125" x2="893.21875" y2="151.13125" fill="rgb(0, 0, 0)" stroke="rgb(60, 60, 60)" stroke-width="1px" opacity="0.25"></line><line x1="0" y1="113.34843749999999" x2="893.21875" y2="113.34843749999999" fill="rgb(0, 0, 0)" stroke="rgb(60, 60, 60)" stroke-width="1px" opacity="0.25"></line><line x1="0" y1="75.56562500000001" x2="893.21875" y2="75.56562500000001" fill="rgb(0, 0, 0)" stroke="rgb(60, 60, 60)" stroke-width="1px" opacity="0.25"></line><line x1="0" y1="37.78281249999998" x2="893.21875" y2="37.78281249999998" fill="rgb(0, 0, 0)" stroke="rgb(60, 60, 60)" stroke-width="1px" opacity="0.25"></line><line x1="0" y1="0" x2="893.21875" y2="0" fill="rgb(0, 0, 0)" stroke="rgb(60, 60, 60)" stroke-width="1px" opacity="0.25"></line></g></g></g><g><g><line x1="0" y1="264.4796875" x2="893.21875" y2="264.4796875" fill="rgb(0, 0, 0)" stroke="rgb(153, 153, 153)" stroke-width="1.5px"></line></g></g><g><g><line x1="111.65234375" y1="0" x2="111.65234375" y2="377.828125" fill="rgb(0, 0, 0)" stroke="rgb(153, 153, 153)" stroke-width="1.5px"></line></g></g><g><g><g><g><g><path stroke="rgb(255, 112, 67)" stroke-width="2px" d="M112.7688671875,266.11079724571107L113.885390625,268.47289079922814L115.0019140625,268.2881152584644L115.56017578125,267.46894993867517L116.67669921874999,275.6772591970143L117.79322265625,270.6119149963883L118.35148437500001,279.6976337018293L118.90974609374999,273.65811998445645L119.4680078125,271.82327073164737L120.02626953125,270.54604097393405L120.58453125000001,267.7105449247816L121.14279296875,266.5468845322726L121.7010546875,266.2071749547123L122.25931640625,265.6139270569256L122.81757812500001,264.4190760932844L123.37583984375,265.18018900733745L123.9341015625,266.5212082810355L124.49236328125,267.8747431353237L125.60888671875,266.2852879094375L126.16714843749999,265.7447967882076L127.283671875,265.47537152400355L128.95845703125,266.32796986334205L129.51671875,265.9094111036415L130.07498046875,265.6615393810698L130.6332421875,266.43528945851585L131.19150390625,265.95987184775794L132.30802734375,266.5403448421562L133.9828125,266.58608653711264L134.54107421875,265.56161966450736L135.65759765625,265.3018583941183L136.215859375,264.64076123811094L136.77412109375,264.6040312020212L137.3323828125,264.4607782699438L137.89064453125002,264.88219723528755L138.44890625,264.2908161029179L139.5654296875,264.78865712488107L140.12369140624997,265.10042259290407L141.7984765625,263.80418740137503L142.35673828125,263.5367073359615L142.915,275.25595658505875L143.47326171875,271.0708365345452L144.0315234375,268.2921983614659L145.70630859374998,277.61216921556974L146.2645703125,272.3362429803507L146.82283203125,270.5195988379913L147.38109375000002,268.7086933907784L147.93935546875,266.5473407499492L148.4976171875,266.023797552792L149.05587890625,265.0041193511037L149.614140625,265.04498255482395L150.17240234375,265.0358388310556L150.7306640625,266.82367805363964L151.84718750000002,267.7718417441041L152.40544921875,267.0570555860816L152.96371093750003,266.112913046019L153.52197265625,266.5921693199307L154.63849609375,266.5538937740582L155.19675781249998,268.0094370181144L155.75501953125,266.29142413401473L156.31328125,265.8366233822147L157.4298046875,266.1644537903428L157.98806640625,265.94696230591416L159.10458984375,265.9789536007278L159.66285156249998,292.05973702074266L160.22111328125,281.37784626271707L160.779375,296.70420479818813L161.33763671875002,302.29629046657465L161.8958984375,289.78437648776753L163.012421875,291.7117995473694L163.57068359375,280.97260976663836L164.1289453125,284.4237863013816L164.68720703125,277.51441556317286L165.80373046875002,273.2513169150941L167.478515625,270.71131612402155L168.03677734374997,267.6938582033369L168.5950390625,266.4049536431617L169.15330078124998,272.2730737991516L169.7115625,274.14379954423094L170.26982421875,270.06585499639266L170.8280859375,267.5853751096305L171.38634765625,267.03509179243906L173.0611328125,265.9558777857294L173.61939453124998,265.7291286369342L175.29417968750002,267.44737600129235L176.96896484375,265.92594957598084L177.5272265625,265.13014733681223L178.08548828125,264.60120143958295L178.64375,269.03463319153525L179.20201171875,269.91691774895514L179.76027343750002,267.1739353852363L180.87679687500003,267.0959821563918L181.43505859375,267.32614988670105L181.99332031249997,266.4205929907456L182.55158203125,265.6337020661368L183.10984374999998,267.8775254889115L184.2263671875,266.4619553015568L184.78462890625,263.97313329595676L186.4594140625,264.0038989301798L188.13419921875,263.5864319626473L188.6924609375,263.3959249634279L189.808984375,263.7277696973615L190.9255078125,268.0990578841098L191.48376953125,266.4677847315882L192.04203125,265.4052655904135L192.60029296875,263.5158073881531L193.1585546875,267.078193607687L193.71681640625002,266.3804192550272L194.83333984375003,266.7357240501553L195.3916015625,264.5029434866613L195.94986328124997,262.97608891640346L196.508125,263.3608703593602L197.6246484375,264.07204700262486L198.18291015625,265.17421692555155L198.741171875,264.1449956667054L199.8576953125,263.2578967035406L200.41595703125,263.33570945662575L200.97421875,263.86035202871426L202.0907421875,263.4720326662771L202.64900390625,263.34553264609764L203.76552734375,261.85004446060054L204.3237890625,262.2343494958436L205.4403125,262.0899328565953L205.99857421875,258.6159544556831L206.5568359375,256.96027734748213L207.67335937500002,256.9196556515389L208.23162109375,256.3392434243401L208.78988281250003,257.6210908415055L209.90640624999997,259.64301136582947L210.46466796875,260.0148039900795L211.02292968749998,260.40641710544674L211.58119140625,258.66313972978264L212.69771484375,260.9939290414462L213.2559765625,262.9535982862526L213.81423828125,255.85732537906966L214.3725,257.61401082496167L214.93076171875,260.31036767546357L215.48902343749998,258.26296589115157L216.04728515625,258.14006919314204L216.605546875,256.8501537732991L217.16380859375002,257.43002652555896L218.28033203125,259.6497775037682L218.83859375,258.262945051007L220.51337890625,258.91541654663354L222.74642578125003,260.4789276378648L223.3046875,258.3535098131666L224.97947265625,258.1665770743376L225.537734375,255.8457507615665L226.6542578125,256.6632321885645L227.21251953125002,258.3356220277345L227.77078125,254.59708927273965L228.32904296875,250.33258177153715L228.88730468749998,255.50129434537678L230.56208984375,250.56000114000193L231.1203515625,247.0929720914719L231.67861328125002,250.44362878099665L232.236875,246.44644606841794L233.91166015625,253.05504456975694L234.469921875,255.1727095795693L235.02818359375,251.63359667999637L235.5864453125,255.71020775870736L236.14470703125002,256.13621863332423L236.70296875000003,255.42739673066518L237.81949218749997,253.54641327418554L238.37775390624998,252.45860668391748L238.936015625,255.21412774222114L240.0525390625,251.2171930319942L240.61080078125,252.95697313064557L241.16906250000002,255.88489956072704L241.72732421875,255.38718919606526L242.2855859375,252.60827630521013L242.84384765624998,255.69021749397965L243.402109375,256.90827133491547L244.5186328125,241.53284090138263L245.07689453125,246.7745048598718L246.19341796875,250.6110643012113L246.7516796875,249.19571360599915L247.30994140624998,240.60060092402887L248.42646484375,238.69148630083913L248.9847265625,248.66336404632878L249.54298828125,252.21717438237755L250.10125000000002,248.3436263316589L250.65951171875003,246.6397739491342L251.2177734375,252.3258670634865L251.77603515624997,250.58071579738373L252.33429687499998,255.51505277852007L252.89255859375,257.96595862322204L253.4508203125,257.0484067657683L254.56734375,253.05482369660695L256.24212890625,256.78613369976375L256.800390625,251.30766039003188L257.35865234375,256.4287547694305L257.9169140625,239.53805626482603L259.0334375,240.69170254322788L260.1499609375,249.56238756020608L261.266484375,249.84041744123306L262.3830078125,249.01629117492203L263.49953124999996,242.7776315209017L264.05779296875005,239.2651424151579L264.6160546875,247.32153429830547L265.17431640625,252.42512623355196L265.732578125,253.53155974715594L266.84910156250004,244.1733113763621L267.40736328125,240.89346377226656L267.965625,233.26997090396964L268.52388671874996,230.8396300858312L269.0821484375,237.0218408485492L269.64041015625,236.57638162102222L270.198671875,237.81441263010692L270.75693359375,231.2993900193178L273.5482421875,236.70149675695203L274.664765625,238.2296358711344L275.22302734375,236.65056608341825L276.33955078125,218.02614481660063L276.8978125,229.57765084023197L277.45607421874996,226.12553686659646L278.01433593750005,224.89839149060913L278.57259765625,233.88590171182076L279.130859375,236.74654292902423L279.68912109375,222.8016050436847L280.24738281249995,230.07112014611437L280.80564453125004,239.91108381250305L281.36390625,232.98596014536622L281.92216796875,236.51311596122025L283.596953125,246.90172223815347L284.15521484375,253.97510137458994L285.27173828125,254.0148384827778L286.9465234375,246.30709093691857L287.50478515625,247.5433416177389L288.62130859375,248.230734495313L289.1795703125,243.21278061059417L289.73783203125004,243.03079158580843L290.29609375,238.8981667948612L290.85435546875,232.23360396836568L291.97087890625005,235.63604880092603L292.529140625,241.84157736126699L293.08740234375,234.2308154435546L293.6456640625,238.88312701670117L294.20392578124995,228.22654973388543L294.76218750000004,226.07258763116377L295.32044921875,237.9743321633254L296.43697265624996,240.54017708135098L296.995234375,231.33021375010756L298.1117578125,241.36338473133057L299.22828125,249.61783258716946L300.3448046875,243.21239704551152L301.461328125,241.68276661292703L302.01958984375,237.90128638602252L302.5778515625,236.12282487520787L303.13611328125,229.50463922749287L303.69437500000004,239.2856536852117L304.25263671875,242.95186384604904L304.8108984375,245.67609904462896L305.36916015624996,238.38671066891908L305.92742187500005,232.47565109510757L306.48568359375,229.0758111706754L307.0439453125,241.00079400325896L307.60220703125,242.68624239003825L308.16046874999995,244.2107165819035L308.71873046875004,230.66362282015953L309.2769921875,232.55356323879528L309.83525390625,228.45125122887592L310.95177734375,236.22489354759395L312.06830078125,246.19157670461857L312.6265625,248.44113655843094L313.18482421875,249.77067351718517L313.7430859375,252.13796968595847L314.30134765625,256.1064084781543L314.859609375,244.11450718451832L315.41787109375,241.315953791607L315.9761328125,235.46636395194326L316.53439453125,215.67351203266495L317.09265625,223.2539836161215L317.65091796875004,239.49125644228693L318.76744140625,227.30648337846418L319.32570312499996,239.9202572633971L320.4422265625,230.7547770618194L321.55875,230.1529135164114L322.11701171874995,232.49652912470893L322.67527343750004,214.0497233512902L323.23353515625,220.29002746750018L323.791796875,232.62596477016152L324.9083203125,229.89257226888859L325.46658203125,231.98122715428664L326.58310546875,233.48116786373134L327.1413671875,239.73589262785717L327.69962890625,247.98921679685L328.257890625,229.999448229584L328.81615234375,219.93279553801588L329.93267578125,228.23140525005562L330.4909375,225.57199515297833L331.04919921875,208.7464645038964L331.60746093750004,215.38595813135393L333.28224609374996,228.7110681994682L334.39876953125,230.76138320083174L334.95703125,235.8748206724903L336.07355468749995,240.02651331232673L336.63181640625004,244.9657135529249L337.190078125,236.7621166704207L338.30660156249996,242.51373313507256L338.86486328125,227.0614813330699L339.98138671875,222.64235289476687L341.09791015625,213.61865137995707L343.88921875,201.11173685824767L344.44748046875,201.82589778854785L346.122265625,219.2704411049982L346.68052734375,194.57793000052334L347.23878906249996,212.9087220606015L347.79705078125005,232.44097889604603L348.3553125,241.34337549942038L348.91357421875,223.65549142292798L350.03009765624995,230.02903163209237L351.14662109375,237.59606819949315L352.26314453124996,221.51302621358016L353.37966796875,211.68209811324942L355.054453125,223.33643233459392L355.61271484375,195.23886563229323L356.72923828125,202.76055984202245L357.2875,212.52414847925672L357.84576171875,222.50039946097473L358.4040234375,238.98295904443586L358.96228515625,228.55587471811964L360.07880859375,232.0234432462847L360.6370703125,220.78651427777265L361.19533203124996,225.13824666351113L361.75359375000005,236.073132560847L362.31185546875,237.14144722892155L362.8701171875,194.63532017161197L363.42837890625,218.13190734685983L363.98664062499995,229.61854982393697L364.54490234375004,242.6075915096433L365.66142578125,243.96342704260772L366.21968749999996,239.03477889180914L367.3362109375,240.89647687613925L367.89447265625,188.5256621825073L368.452734375,207.38818200265013L369.01099609375,202.02087768929147L369.5692578125,206.93739643565743L370.12751953125,207.59287444472272L370.68578125,195.33726707177138L371.24404296875,207.2064306038569L371.8023046875,226.24325843538466L372.36056640625,229.57214525024904L372.918828125,219.43510739825734L373.47708984375004,223.15643237138846L374.0353515625,186.65385628211652L374.59361328125,205.36079230434987L375.15187499999996,168.37540793510018L375.71013671875005,162.83683385163627L376.2683984375,195.58957110367584L376.82666015625,200.94680030785068L378.50144531250004,217.0580988646344L379.05970703125,173.6007391372011L381.29275390625,196.00469085799966L382.9675390625,195.87785090273925L383.52580078125,217.52341745011753L384.0840625,216.29643945856537L384.64232421875,217.33901323713567L385.2005859375,235.18069278094356L386.317109375,222.22114974487533L386.87537109375,230.56807228119797L387.43363281250004,212.85165267978445L389.10841796874996,195.05783283452473L389.66667968750005,196.804306448838L390.783203125,165.5799551989537L393.01625,153.77957532274132L393.57451171875,165.51569720444803L394.69103515625,139.53724369711952L395.249296875,162.20916929123922L395.80755859375,191.76978204795674L396.3658203125,159.0117591607198L396.92408203125,197.69933069616948L397.48234375,212.83652801166528L398.04060546875,230.47815353716464L399.15712890625,202.4367908495632L399.715390625,174.36719574219032L400.27365234375,174.55350656915454L400.8319140625,186.91996934791055L401.39017578125004,166.23429573151856L401.9484375,149.1698828563916L402.50669921875,181.52917375108166L404.181484375,180.04206957840782L404.73974609375,169.8967630860034L405.2980078125,161.7064528027739L408.647578125,136.8275554679803L409.7641015625,146.90542107986045L410.32236328125,184.88507126581328L410.880625,145.29846611642157L411.43888671875,184.74867672429627L411.9971484375,215.38259583113043L412.55541015625,213.1744546716824L413.113671875,198.91939124493453L413.67193359375,188.6278309417239L414.2301953125,152.62500253018325L414.78845703125,123.43992604173053L415.34671875000004,112.04404311069504L415.90498046875,159.07454653383647L416.4632421875,187.7570172652802L417.02150390624996,142.48717965421207L417.57976562500005,175.89030087091166L418.13802734375,205.0217820200064L418.6962890625,183.7103531325971L419.81281249999995,191.88452386480301L420.37107421875004,148.3074256228979L420.9293359375,150.2899982988486L422.04585937499996,188.2120484852677L423.1623828125,154.69388495541844L424.27890625,166.78509344486972L424.83716796875,162.2333390243803L425.3954296875,178.5990001451275L426.511953125,141.6741764127601L427.07021484375,162.8931594767301L427.6284765625,187.15339895195302L428.745,165.3288949546679L429.30326171875004,177.5828364311137L429.8615234375,175.58750105163085L430.41978515625,131.9557183671846L430.97804687499996,106.53682123332345L431.53630859375005,158.64020543820573L432.0945703125,191.4787819259102L432.65283203125,205.18721694241134L433.76935546874995,216.0434329812656L434.32761718750004,155.35675283716026L434.88587890625,132.3375636896008L435.444140625,106.11821885279863L436.00240234374996,145.8258769668153L436.5606640625,110.21515045590706L437.11892578125,156.20136156268302L437.6771875,181.1261861925994L438.23544921875,153.49375400788753L438.7937109375,117.80653387903675L439.35197265625,159.99519264073075L439.910234375,133.95561816256344L440.46849609375,129.77854549531642L441.0267578125,174.8012130177098L442.14328125,140.77510073390474L442.70154296875,111.88614323697368L443.25980468750004,168.4267190428846L444.376328125,195.89825180765823L444.93458984374996,165.19415052017231L445.49285156250005,204.98794226213673L446.05111328125,216.62978873744714L447.16763671875,197.18348275876468L447.72589843749995,183.77039520472778L448.28416015625,141.01270150790748L448.84242187499996,113.86748692159023L449.40068359375005,172.76727089377977L449.9589453125,129.77241846888504L450.51720703125,151.89114957483076L451.63373046875,176.20541879748026L452.75025390624995,201.10762365710448L453.308515625,146.50706599449464L453.86677734375,112.17505495039552L455.5415625,169.28863822707135L457.77460937499995,196.3131508145463L458.33287109375004,188.90108038573098L458.8911328125,153.4836246257867L459.44939453125005,187.79253435146842L460.00765625,210.0964373170044L460.56591796875,157.2700371716968L461.1241796875,150.82050635926197L461.68244140624995,119.45324284631891L463.35722656250005,162.0713344257097L463.91548828125,202.497442065872L464.47375,175.0171144077666L465.03201171875,179.7182643879156L466.14853515625,135.0323550371683L466.70679687499995,170.27560876898983L467.26505859375,123.19325672806872L468.38158203125005,172.72511744613155L468.93984375,189.6872929386872L469.49810546875,171.91164486736886L470.0563671875,126.59844656367082L470.61462890625,102.30255835629333L471.172890625,86.9435410873844L471.73115234374995,90.05443384920801L472.28941406250004,81.08333871345542L472.84767578125,139.8639823730089L473.40593750000005,153.7128706110917L473.96419921875,166.25746496934667L474.5224609375,153.6278290611063L475.08072265625,165.22423450346676L475.63898437499995,161.2114322894519L476.19724609375,123.20803567371996L476.75550781249996,98.04397418712989L478.43029296875,82.94899088038096L478.9885546875,75.52755391024766L480.105078125,67.54382886439811L481.2216015625,60.02140206961542L481.77986328125,58.737704931039275L482.33812500000005,61.66260143366014L482.89638671875,73.98141446493241L483.4546484375,112.53436838156563L484.01291015625,117.04070112934221L484.571171875,87.73914521495891L485.12943359375,74.95375086615792L485.68769531249995,140.53703398313468L486.80421875,180.6913515960118L487.36248046875005,189.40265512791044L487.9207421875,126.67388871395326L488.47900390625,160.84996674781166L489.037265625,152.77864236939624L490.1537890625,111.00257661579059L490.71205078124996,113.75730385231736L491.27031250000005,134.6863444650159L491.82857421875,98.87457386345778L492.3868359375,159.73384933358142L492.94509765625,191.7179330907113L493.503359375,213.08969321963826L494.06162109375,220.84008847984816L494.61988281249995,212.49978111349787L495.17814453125,156.34738546680478L495.73640625,119.81304233965324L496.29466796875005,157.74342966068886L496.8529296875,110.91760235177219L498.52771484375,170.20577962204666L499.64423828124995,118.04616332559613L500.76076171875,87.9443378021814L502.435546875,135.0867927952157L502.99380859375,174.63419314058464L503.55207031249995,190.06326591967488L504.11033203125,196.77537854884474L504.66859374999996,203.76622256776815L505.22685546875005,215.3406291577263L505.7851171875,212.72416268109816L506.34337890625,204.46161101991382L506.901640625,213.88704018002537L507.45990234375,216.41827434445017L508.0181640625,213.03106422909136L508.57642578124995,203.43315612031006L509.1346875,195.62940545929538L510.80947265625,194.83047732808274L511.367734375,185.17738162466338L511.92599609375,185.00464385120185L513.0425195312499,196.41832780409882L513.60078125,189.45670251314775L514.7173046875,192.68125670144642L515.27556640625,200.7337460550933L515.833828125,192.79275805679256L516.39208984375,186.27927487557943L516.9503515625,185.87819005077492L517.50861328125,195.00938499985583L519.1833984375,192.21962309731035L519.7416601562501,179.28883634251704L520.299921875,170.74789847756833L522.53296875,174.36238590828782L523.0912304687499,163.7758185606587L524.20775390625,177.4838230358856L524.766015625,182.26158055843928L525.32427734375,171.03779930109752L525.8825390625,181.95417174153192L526.44080078125,194.64237762476841L526.9990624999999,185.0519693487563L527.55732421875,171.49183590765466L528.1155859375001,174.4224227982549L528.67384765625,191.9385285838907L529.232109375,190.63034264494806L530.3486328125,193.38095960613387L530.90689453125,177.53783593915642L531.46515625,177.81747034416398L532.02341796875,211.30332337262277L532.5816796874999,198.28801447874335L533.13994140625,179.74810821208732L533.6982031250001,185.32822258792743L534.25646484375,176.38021434026257L535.93125,198.11294423606213L536.48951171875,193.5991920563162L537.6060351562501,185.55453911181098L538.164296875,185.1998486971891L538.72255859375,167.9870121779082L539.2808203125,158.247541428449L539.83908203125,156.89685894901888L540.39734375,161.01945684920867L541.5138671875,160.5450743693824L542.0721289062501,158.14025719243023L542.630390625,161.70483298077184L543.18865234375,186.34141134768245L543.7469140625,174.5534570286412L544.30517578125,179.2216417654025L544.8634375,203.8880685492699L545.42169921875,195.4955087723842L547.096484375,178.30241210379307L547.6547460937501,206.44602900931184L548.77126953125,211.4458614764031L549.32953125,204.34569936821796L549.88779296875,195.22266080119815L550.4460546875,204.77176911018972L551.5625781250001,172.8859481509893L552.6791015625,158.53684089575103L553.23736328125,166.9907735775202L553.795625,175.14789135758693L554.35388671875,185.33306378412613L554.9121484374999,171.98503364523154L555.47041015625,180.31501832014982L556.0286718750001,172.13424789867554L556.58693359375,154.85327975132083L557.70345703125,157.15530155471097L558.26171875,152.7637731719013L558.81998046875,158.34561794473623L559.93650390625,167.0335690448874L561.05302734375,155.34913538887702L561.6112890625001,162.7606507014048L562.16955078125,158.6601394413812L562.7278125,166.518200707828L563.28607421875,167.1027488077229L563.8443359375,163.5428200539819L564.9608593749999,162.43889811133806L565.5191210937501,160.7626372687499L566.0773828125,162.436549255476L566.63564453125,161.98939443487743L567.19390625,196.26159204233895L567.75216796875,183.00447048388727L568.8686914062499,183.92690037291297L569.9852148437501,167.99427452901506L570.5434765625,174.0305289701861L571.66,164.61242943518178L572.21826171875,167.40135342282778L572.7765234375,158.8212494841166L574.4513085937499,157.86876182425902L575.0095703125,151.5486991702085L576.12609375,158.98442573778183L576.68435546875,158.07053710328313L577.80087890625,159.20718084015593L578.359140625,158.36540544073907L578.9174023437499,160.4085584513636L579.4756640625001,148.3277532550223L580.03392578125,158.63904994053166L580.5921875,155.70480611284805L582.26697265625,190.82562938693187L582.8252343749999,168.77634300905117L583.9417578125001,158.54283752173933L584.50001953125,156.83133369086949L585.05828125,156.25567403105003L585.61654296875,149.42257821776332L586.73306640625,148.55630222606814L587.291328125,148.96331507618046L587.84958984375,144.0937814623953L588.4078515624999,150.3455030957294L589.5243750000001,180.93168733309224L590.6408984375,171.41133717814515L591.757421875,157.84053822775496L592.31568359375,152.53980971186056L592.8739453124999,154.25736816323692L593.4322070312501,155.19459739788113L593.99046875,150.201953828133L596.223515625,143.57865684766108L596.7817773437499,137.91727021119672L597.3400390625,140.38858867517996L597.8983007812501,145.38260219634944L598.4565625,140.99538166052204L599.5730859375,141.23113747028174L600.13134765625,142.5259002385167L600.689609375,139.4902212167184L601.24787109375,147.91024362236504L601.8061328125,137.79715487047105L602.3643945312499,139.8168233267931L602.92265625,135.87652097697188L603.4809179687501,135.5413651517959L604.0391796875,140.02101235600068L604.59744140625,142.50705005306568L605.71396484375,143.2962850213109L606.2722265625,133.4923659917294L606.8304882812499,142.7041596142637L607.3887500000001,137.36225337796375L607.94701171875,135.34004743266203L608.5052734375,138.58516584530886L609.06353515625,144.38127236286775L610.18005859375,133.6439426720236L610.7383203124999,134.7438686980018L611.29658203125,144.6143589485984L611.8548437500001,144.09539199544076L612.41310546875,143.30881547207525L612.9713671875,142.09896458842096L613.52962890625,190.36829223157724L614.087890625,165.7040644145689L614.64615234375,150.17257067968615L616.87919921875,142.68652088696817L617.4374609375001,144.35958118940746L618.553984375,142.25565190227363L619.11224609375,133.98382252731994L619.6705078125,136.683909466099L620.22876953125,138.93897485003905L620.7870312499999,141.8628898560073L621.3452929687501,190.82462043728955L621.9035546875,156.95159170847967L623.020078125,143.8018007535424L623.57833984375,141.34477361176286L624.1366015625,133.71868157321617L624.6948632812499,135.5005380123806L625.8113867187501,129.39112412563514L626.3696484375,134.4882066161892L626.92791015625,138.06532776976232L627.486171875,136.85468243502027L628.04443359375,132.41831822489763L628.6026953125,128.14003364673056L629.71921875,128.4647283916211L630.2774804687499,118.72435175665237L631.3940039062501,119.85164503836643L631.952265625,119.7207971218968L632.51052734375,117.13500027203946L633.0687890625,123.69986433329814L633.62705078125,128.7324033260836L634.1853125,125.31857270487868L635.3018359375001,125.96262810855342L636.418359375,126.21332733479755L638.09314453125,128.18323650418054L638.6514062499999,119.45389795994242L639.20966796875,124.71073666567489L639.7679296875001,127.78386881291206L640.884453125,129.2531780058869L641.44271484375,132.44212003198672L642.0009765625,127.95175236541397L643.1175,127.29974443728426L643.67576171875,128.42698442421138L644.2340234374999,121.27634945686447L644.79228515625,125.08755911595219L645.90880859375,123.24235432256816L646.4670703125,179.1593125486729L647.02533203125,154.36158739950403L647.58359375,137.65639684766143L648.14185546875,132.98281220466617L648.7001171874999,128.75558137934877L649.2583789062501,181.79382301680965L649.816640625,156.88044386654335L650.37490234375,141.5306197797038L651.49142578125,136.6772164390503L652.0496875,177.52850619529357L653.1662109375,156.9122691764657L654.282734375,142.31986446638967L654.84099609375,135.94876801058334L655.95751953125,181.41663612955023L657.07404296875,152.93317778475526L657.6323046875,140.59131383943227L658.1905664062499,131.27989023359098L658.748828125,129.6365986761348L660.42361328125,127.44419713811496L660.981875,166.10360647348182L661.54013671875,145.74628091930637L662.0983984375,133.56183510721738L663.2149218750001,177.68035899699336L663.77318359375,157.75837664621238L664.3314453125,137.57988002367713L664.88970703125,133.13844980070533L665.44796875,128.95090373616662L667.12275390625,125.47154196749955L668.23927734375,179.07246147440688L668.7975390625,147.45943808978328L669.9140625,127.88335767503699L670.47232421875,126.96157753440451L671.58884765625,181.48046385251706L672.1471093749999,158.42395858098044L672.70537109375,147.60315723065005L673.2636328125001,137.46435459489024L674.38015625,132.95208530896662L674.93841796875,128.04300782325836L675.4966796875,126.47221738392699L676.6132031249999,120.83715101537814L677.1714648437501,126.48799658945151L677.7297265625,123.28342176882595L678.28798828125,119.68056670982463L679.40451171875,115.89302678294433L679.9627734375,117.51583700101054L681.079296875,114.55789310545248L682.1958203125,116.25848874657225L682.75408203125,112.13318866206691L683.87060546875,110.59151711996964L684.4288671875,113.77934306281429L684.98712890625,118.37851466856017L685.545390625,119.0090299421883L686.6619140625,120.83678225089648L687.7784375,118.01428595881424L688.33669921875,117.41796563717821L688.8949609375,115.71391353712255L689.45322265625,113.52580871690856L690.011484375,110.10697096714466L690.5697460937499,114.14694029192623L691.1280078125001,114.54573730870067L691.68626953125,173.74761917890297L692.24453125,147.44230338630908L692.80279296875,135.7415320424666L693.91931640625,128.83117071321192L694.4775781249999,125.49675675333606L695.03583984375,115.40523270739715L695.5941015625001,115.22457153544906L697.26888671875,115.5877810786181L697.8271484375,115.26042038407877L698.38541015625,114.16209428748459L698.943671875,117.28979983832937L699.50193359375,114.93002900700151L700.61845703125,119.45956509493578L701.1767187500001,119.9136867191624L701.73498046875,116.08846239923423L702.2932421875,117.6749029865681L702.85150390625,119.02132837946533L705.6428125,117.13929457696509L706.20107421875,123.01091951458116L706.7593359375,117.51007113715445L707.31759765625,115.87499822993061L707.875859375,112.23309622555598L708.4341210937499,118.62951652164952L709.5506445312501,150.2074708946639L710.10890625,138.94828148668847L710.66716796875,128.7227891762843L711.2254296875,120.81383057547276L711.78369140625,117.96322656458295L712.341953125,118.80084995547344L712.90021484375,116.32407580717688L713.4584765625,113.5498793826215L714.0167382812499,113.94566124529558L714.575,116.2836813206942L715.1332617187501,116.59989805160234L715.6915234375,115.75520921639838L716.24978515625,115.13692185948992L716.808046875,118.48074892883483L717.36630859375,121.43306923568838L717.9245703125,116.54908172329777L718.4828320312499,164.50847190881086L719.59935546875,146.12152767546837L720.71587890625,133.59257878347313L721.274140625,125.88628800632046L721.83240234375,125.16305392012526L722.3906640624999,117.3837952634521L722.94892578125,110.75311302293937L724.06544921875,108.13675193089011L725.18197265625,111.61197017846206L725.740234375,111.3803062930208L726.8567578125,156.51949436106332L727.9732812499999,192.1912065208891L728.53154296875,163.5733857065093L729.0898046875001,139.8534522307904L729.64806640625,128.8721201839942L730.206328125,124.52845758662335L731.88111328125,116.16547663601943L732.4393749999999,115.89718684220736L734.11416015625,115.63980037894504L734.672421875,119.37878770646245L735.23068359375,117.43434644849299L736.90546875,122.4583881423807L737.4637304687501,113.75362153472042L738.58025390625,109.0133779641672L739.138515625,109.5695115296295L739.69677734375,107.54326022740901L740.2550390625,138.43392296338024L740.81330078125,127.42399502467123L741.3715625,118.33923485995655L741.9298242187499,116.65393782973126L742.4880859375,111.85492934609312L743.0463476562501,111.11689467217008L743.604609375,114.87158567827152L744.7211328125,108.76468366617922L745.27939453125,114.07018952587941L745.83765625,113.2579200328189L746.9541796875001,115.72248077320086L747.51244140625,112.56133656359094L748.070703125,115.04219104627833L748.62896484375,111.56468066383877L749.1872265625,108.90344767595218L749.74548828125,159.8688052704196L750.3037499999999,141.31353934084063L750.86201171875,130.13234690681153L751.97853515625,127.21150229890259L752.536796875,121.43555770105792L753.6533203125,120.0114509096972L754.21158203125,117.1511438098259L754.76984375,113.79429626300737L755.32810546875,115.33971240410568L755.8863671874999,116.75697638701297L756.44462890625,117.77138745345411L757.0028906250001,114.36959886092745L757.56115234375,110.43676537368538L758.1194140625,112.25959310726785L758.67767578125,107.76961731364048L759.2359375,110.06449063476634L759.79419921875,112.83866288275186L760.3524609374999,114.05777919083272L760.9107226562501,113.26751668442154L762.02724609375,114.2822233767418L762.5855078125,109.11643154557629L763.14376953125,105.32023252903036L763.70203125,108.56508735051756L764.8185546875,111.93706166674974L765.3768164062501,112.89825035728859L767.60986328125,115.87271103315982L768.72638671875,116.96980666628258L769.2846484375,142.70444290785062L770.401171875,128.0616564261679L770.9594335937501,122.01388062358401L771.5176953125,116.93618524701424L772.07595703125,116.11976494398488L772.63421875,110.31339875826109L773.7507421875,107.10298049610651L774.3090039062499,111.99561583230138L774.8672656250001,113.79349530016214L775.42552734375,109.33417772086875L775.9837890625,115.34708067289603L776.54205078125,111.80356547191388L777.1003125,107.23805924255993L777.65857421875,106.90258363788212L778.2168359374999,109.32676097649147L778.77509765625,109.94166613286143L779.3333593750001,106.26416963058352L779.89162109375,105.26489900369188L780.4498828125,109.60329931981767L781.00814453125,109.19941799093846L781.56640625,106.36377140064212L782.12466796875,110.34561580501543L782.6829296875,134.92688168820945L783.7994531249999,122.92409642503506L784.35771484375,116.94466235422755L785.47423828125,141.03587122967517L786.0325,129.90156691505123L786.59076171875,123.40569578883174L787.70728515625,118.3030489834614L788.2655468749999,119.8216491380017L788.8238085937501,117.09172312888865L789.3820703125,115.62701869148111L789.94033203125,112.92155201322856L790.49859375,113.56576838734992L791.6151171875,109.18716605865512L792.731640625,105.9430895555422L793.8481640625,103.65306358195812L795.52294921875,104.23510552588391L796.0812109375,113.79786876566459L796.63947265625,110.52064357995539L797.197734375,171.03845399058073L797.7559960937499,143.46310478204376L798.3142578125,130.24569764187027L799.43078125,180.19580208656603L799.98904296875,152.67692528285394L800.5473046875,134.04321243381145L801.10556640625,122.00759513240601L801.663828125,116.5855795406863L802.2220898437499,109.5260101072243L802.7803515625001,112.9275732602269L803.33861328125,110.32039502577726L803.896875,139.76097027001347L804.45513671875,123.22867848952276L805.57166015625,117.2819152541141L806.1299218749999,112.61193486932632L806.68818359375,113.91159932110139L807.80470703125,113.52365818442723L808.36296875,112.27633643333087L808.92123046875,108.4390840792368L809.4794921875,105.92029323501765L810.03775390625,103.62825757064928L810.596015625,103.09512798507757L811.15427734375,105.74342223111L811.7125390624999,110.19783768543721L812.27080078125,105.88114262041762L812.8290625000001,103.63050674290486L813.38732421875,107.34194100115673L813.9455859375,111.36352942659119L814.50384765625,108.17359025605242L815.062109375,107.72001363086537L816.1786328124999,105.77868646282099L816.7368945312501,101.4934873757395L817.29515625,104.34043799490172L817.85341796875,105.43288873230478L818.4116796875,107.94069845483699L818.96994140625,148.65100563288448L819.528203125,134.31111848654223L820.0864648437499,122.70439717529939L820.6447265625,117.5150681063576L821.76125,109.64053004258653L822.31951171875,105.11244017734634L823.43603515625,102.2756922436148L825.1108203125,102.65434739542422L825.6690820312499,106.7284469835497L826.22734375,102.76000119092328L827.3438671875,106.69448579328929L827.90212890625,107.94523264296578L828.460390625,104.49781841817696L829.5769140625,105.32342262897009L830.6934375000001,104.93392201793387L831.25169921875,106.8307295089781L831.8099609375,103.79073598938345L832.36822265625,103.65389742431853L832.926484375,103.44657968322878L833.48474609375,104.02788637439039L834.0430078124999,99.85754345640913L834.60126953125,98.57411382805691L835.71779296875,97.24232451387513L836.2760546875,125.92202849158926L836.83431640625,135.02540438941767L837.392578125,121.07737709226882L837.95083984375,112.81751837541742L839.06736328125,160.09242478051473L839.6256249999999,140.16618741378005L840.18388671875,121.11089955642234L841.30041015625,110.79865138363363L841.858671875,104.54657727518753L842.41693359375,100.03909358313007L842.9751953125,97.28920495725106L843.53345703125,95.87117117289807L844.0917187499999,96.707884801212L844.6499804687501,154.45485051981868L845.2082421875,133.13033268737948L846.324765625,120.48808153991791L846.88302734375,114.50659648315485L847.4412890625,104.03905663470488L847.9995507812499,102.19072967174094" style="fill: none;" fill="none"></path></g></g></g></g><g opacity="0.20000000298023224"><g><g><g><path stroke="rgb(255, 112, 67)" stroke-width="2px" d="M112.7688671875,266.11079724571107L113.885390625,269.89014693133834L115.0019140625,268.11073073933125L115.56017578125,266.50561152260303L116.67669921874999,286.39402776470183L117.79322265625,263.60472044301036L118.35148437500001,292.6903568221092L118.90974609374999,264.85245100519506L119.4680078125,269.11722448487285L120.02626953125,268.64950363719464L120.58453125000001,263.48301859152616L121.14279296875,264.80772653197795L121.7010546875,265.6987197990835L122.25931640625,264.7252174446359L122.81757812500001,262.6282041502774L123.37583984375,266.32132158262135L123.9341015625,268.5321697171688L124.49236328125,269.9047017544031L125.60888671875,263.901347208114L126.16714843749999,264.9341095093921L127.283671875,265.0712484036192L128.95845703125,267.6068393172383L129.51671875,265.28158122780326L130.07498046875,265.2897347334891L130.6332421875,267.59590907520055L131.19150390625,265.24674745906L132.30802734375,267.41105284848214L133.9828125,266.6546990093231L134.54107421875,264.0249202992782L135.65759765625,264.9122166321009L136.215859375,263.6491157233268L136.77412109375,264.5489361551946L137.3323828125,264.2458988889292L137.89064453125002,265.5143256531179L138.44890625,263.40374442977907L139.5654296875,265.5354186449885L140.12369140624997,265.56807079011503L141.7984765625,261.8598346261144L142.35673828125,263.13548723933104L142.915,292.8348304195404L143.47326171875,264.79315646716657L144.0315234375,264.1242411051899L145.70630859374998,291.5921254899979L146.2645703125,264.42235362980716L146.82283203125,267.7946326249242L147.38109375000002,265.99233522024156L147.93935546875,263.30531178890766L148.4976171875,265.23848275708554L149.05587890625,263.4746020486057L149.614140625,265.1062773604035L150.17240234375,265.0221232454032L150.7306640625,269.5054368875027L151.84718750000002,269.1940872797966L152.40544921875,265.9848763490498L152.96371093750003,264.69669923592653L153.52197265625,267.31105373079777L154.63849609375,266.4964804552495L155.19675781249998,270.1927518841982L155.75501953125,263.7144048078656L156.31328125,265.15442225451466L157.4298046875,266.656199402535L157.98806640625,265.6207250792712L159.10458984375,266.02694054294824L159.66285156249998,331.18091215076447L160.22111328125,265.3550101256788L160.779375,319.69374260139466L161.33763671875002,310.68441896915436L161.8958984375,271.016505519557L163.012421875,294.60293413677215L163.57068359375,264.86382509554176L164.1289453125,289.6005511034965L164.68720703125,267.15035945585964L165.80373046875002,266.856668942976L167.478515625,266.90131493741274L168.03677734374997,263.16767132230996L168.5950390625,264.47159680289894L169.15330078124998,281.0752540331364L169.7115625,276.94988816184997L170.26982421875,263.94893817463515L170.8280859375,263.86465527948735L171.38634765625,266.2096668166518L173.0611328125,264.3370567756649L173.61939453124998,265.38900491374136L175.29417968750002,270.02474704782963L176.96896484375,263.64380993801353L177.5272265625,263.9364439780593L178.08548828125,263.80778259373903L178.64375,275.68478081946375L179.20201171875,271.2403445850849L179.76027343750002,263.059461839658L180.87679687500003,266.9790523131251L181.43505859375,267.67140148216487L181.99332031249997,265.0622576468125L182.55158203125,264.45336567922345L183.10984374999998,271.2432606230736L184.2263671875,264.33860002052484L184.78462890625,260.2399002875567L186.4594140625,264.05004738151433L188.13419921875,262.9602315113485L188.6924609375,263.1101644645989L189.808984375,264.2255367982618L190.9255078125,274.65599016423226L191.48376953125,264.0208750028059L192.04203125,263.8114868786514L192.60029296875,260.6816200847626L193.1585546875,272.42177293698785L193.71681640625002,265.3337577260375L194.83333984375003,267.26868124284744L195.3916015625,261.15377264142035L195.94986328124997,260.6858070610166L196.508125,263.9380425237954L197.6246484375,265.1388119675219L198.18291015625,266.8274718099415L198.741171875,262.6011637784362L199.8576953125,261.9272482587934L200.41595703125,263.4524285862535L200.97421875,264.6473158868469L202.0907421875,262.8895536226213L202.64900390625,263.1557826158285L203.76552734375,259.60681218235493L204.3237890625,262.81080704870817L205.4403125,261.8733078977227L205.99857421875,253.4049868543148L206.5568359375,254.47676168518066L207.67335937500002,256.8587231076241L208.23162109375,255.46862508354187L208.78988281250003,259.5438619672537L209.90640624999997,262.6758921523154L210.46466796875,260.5724929264545L211.02292968749998,260.99383677849767L211.58119140625,256.04822366628645L212.69771484375,264.4901130089416L213.2559765625,265.89310215346217L213.81423828125,245.2129160182953L214.3725,260.2490389937997L214.93076171875,264.35490295121633L215.48902343749998,255.1918632146835L216.04728515625,257.9557241461277L216.605546875,254.91528064353466L217.16380859375002,258.2998356539488L218.28033203125,262.979403971082L218.83859375,256.1826963718653L220.51337890625,259.8941237900734L222.74642578125003,262.8241942747116L223.3046875,255.16538307611944L224.97947265625,257.886177966094L225.537734375,252.3645112924099L226.6542578125,257.8894543290615L227.21251953125002,260.8442067864895L227.77078125,248.98929014024733L228.32904296875,243.93582051973343L228.88730468749998,263.25436320613625L230.56208984375,243.1480613319397L231.1203515625,241.89242851867675L231.67861328125002,255.46961381528376L232.236875,240.45067199954985L233.91166015625,262.96794232176546L234.469921875,258.34920709428786L235.02818359375,246.32492733063697L235.5864453125,261.82512437677383L236.14470703125002,256.77523494524957L236.70296875000003,254.36416387667657L237.81949218749997,250.7249380894661L238.37775390624998,250.82689679851532L238.936015625,259.3474093296766L240.0525390625,245.22179096665383L240.61080078125,255.56664327862262L241.16906250000002,260.2767892058492L241.72732421875,254.64062364907267L242.2855859375,248.43990696892737L242.84384765624998,260.31312927713395L243.402109375,258.73535209631916L244.5186328125,218.46969525108338L245.07689453125,254.6370007976055L246.19341796875,256.3659034632206L246.7516796875,247.07268756318092L247.30994140624998,227.70793190107344L248.42646484375,235.82781436605453L248.9847265625,263.6211806645632L249.54298828125,257.5478898864508L250.10125000000002,242.5333042555809L250.65951171875003,244.08399537534714L251.2177734375,260.8550067350149L251.77603515624997,247.9629888982296L252.33429687499998,262.91655825022457L252.89255859375,261.642317390275L253.4508203125,255.67207897958755L254.56734375,247.064449092865L256.24212890625,262.38309870449905L256.800390625,243.0899504254341L257.35865234375,264.1103963385284L257.9169140625,214.20200850791932L259.0334375,242.42217196083067L260.1499609375,262.8684150856733L261.266484375,250.25746226277352L262.3830078125,247.78010177545548L263.49953124999996,233.4196420398712L264.05779296875005,233.9964087565422L264.6160546875,259.4061221230269L265.17431640625,260.0805141364217L265.732578125,255.1912100175619L266.84910156250004,230.13593882017136L267.40736328125,235.9736923661232L267.965625,221.83473160152434L268.52388671874996,227.1941188586235L269.0821484375,246.2951569926262L269.64041015625,235.90819277973173L270.198671875,239.67145914373398L270.75693359375,221.52685610313415L273.5482421875,244.80465686340332L274.664765625,240.521844542408L275.22302734375,234.28196140184403L276.33955078125,190.08951291637422L276.8978125,246.904909875679L277.45607421874996,220.94736590614318L278.01433593750005,223.05767342662813L278.57259765625,247.36716704363823L279.130859375,241.0375047548294L279.68912109375,201.88419821567535L280.24738281249995,240.9753927997589L280.80564453125004,254.6710293120861L281.36390625,222.59827464466093L281.92216796875,241.80384968500138L283.596953125,262.48463165355327L284.15521484375,264.5851700792447L285.27173828125,254.07444414505957L286.9465234375,234.74546961812973L287.50478515625,249.39771763896943L288.62130859375,249.2618238116741L289.1795703125,235.68584978351592L289.73783203125004,242.75780804862976L290.29609375,232.6992296084404L290.85435546875,222.23675972862245L291.97087890625005,240.73971604976654L292.529140625,251.1498702017784L293.08740234375,222.81467256698608L293.6456640625,245.86159437642098L294.20392578124995,212.24168380966185L294.76218750000004,222.8416444770813L295.32044921875,255.8269489615679L296.43697265624996,244.3889444583893L296.995234375,217.51526875324248L298.1117578125,256.4131412031651L299.22828125,261.9995043709278L300.3448046875,233.6042437330246L301.461328125,239.38832096405028L302.01958984375,232.22906604566575L302.5778515625,233.4551326089859L303.13611328125,219.5773607559204L303.69437500000004,253.95717537178993L304.25263671875,248.45117908730506L304.8108984375,249.7624518424988L305.36916015624996,227.4526281053543L305.92742187500005,223.60906173439025L306.48568359375,223.9760512840271L307.0439453125,258.8882682521343L307.60220703125,245.21441497020723L308.16046874999995,246.4974278697014L308.71873046875004,210.34298217754366L309.2769921875,235.3884738667488L309.83525390625,222.2977832139969L310.95177734375,247.885357025671L312.06830078125,261.1416014401555L312.6265625,251.81547633914948L313.18482421875,251.76497895531656L313.7430859375,255.68891393911838L314.30134765625,262.05906666644813L314.859609375,226.12665524406432L315.41787109375,237.11812370223998L315.9761328125,226.69197919244766L316.53439453125,185.98423415374754L317.09265625,234.6246909913063L317.65091796875004,263.847165681535L318.76744140625,209.0293237827301L319.32570312499996,258.84091809079644L320.4422265625,217.00655675945282L321.55875,229.25011819829942L322.11701171874995,236.01195253715517L322.67527343750004,186.37951469116211L323.23353515625,229.65048364181519L323.791796875,251.12987072415353L324.9083203125,225.79248351697922L325.46658203125,235.11420948238373L326.58310546875,235.7310789278984L327.1413671875,249.11797977404595L327.69962890625,260.36920305033925L328.257890625,203.014795378685L328.81615234375,204.83281650066377L329.93267578125,240.67931981811523L330.4909375,221.58288000736238L331.04919921875,183.50816853027342L331.60746093750004,225.34519857254028L333.28224609374996,248.69873330163955L334.39876953125,233.83685570287705L334.95703125,243.54497687997818L336.07355468749995,246.2540522720814L336.63181640625004,252.37451391382217L337.190078125,224.4567213466644L338.30660156249996,251.14115783205034L338.86486328125,203.88310363006593L339.98138671875,216.0136602373123L341.09791015625,200.0830991077423L343.88921875,182.35136507568362L344.44748046875,202.89713918399812L346.122265625,245.43725607967377L346.68052734375,157.53916334381103L347.23878906249996,240.4049101507187L347.79705078125005,261.73936414921286L348.3553125,254.6969704044819L348.91357421875,197.1236653081894L350.03009765624995,239.58934194583892L351.14662109375,248.94662305059433L352.26314453124996,197.3884632347107L353.37966796875,196.9357059627533L355.054453125,240.8179336666107L355.61271484375,153.09251557884218L356.72923828125,214.0431011566162L357.2875,227.16953143510818L357.84576171875,237.46477593355178L358.4040234375,263.70679841962755L358.96228515625,212.9152482286453L360.07880859375,237.22479603853225L360.6370703125,203.93112082500457L361.19533203124996,231.66584524211882L361.75359375000005,252.4754614068508L362.31185546875,238.74391923103332L362.8701171875,130.8761295856476L363.42837890625,253.37678810973168L363.98664062499995,246.84851353955267L364.54490234375004,262.0911540382028L365.66142578125,245.99718034205438L366.21968749999996,231.64180666561128L367.3362109375,243.68902385263442L367.89447265625,109.96944014205934L368.452734375,235.68196173286438L369.01099609375,193.96992121925354L369.5692578125,214.3121745552063L370.12751953125,208.57609145832063L370.68578125,176.95385601234435L371.24404296875,225.01017590198518L371.8023046875,254.79850018267632L372.36056640625,234.56547547254561L372.918828125,204.22955062026978L373.47708984375004,228.7384198310852L374.0353515625,131.8999921482086L374.59361328125,233.42119633769988L375.15187499999996,112.89733138122557L375.71013671875005,154.5289727264404L376.2683984375,244.71867698173523L376.82666015625,208.98264411411287L378.50144531250004,241.22504669981004L379.05970703125,108.414699546051L381.29275390625,229.61061843919754L382.9675390625,195.68759096984863L383.52580078125,249.99176727118493L384.0840625,214.45597247123717L384.64232421875,218.90287390499114L385.2005859375,261.9432120966554L386.317109375,202.78183519077302L386.87537109375,243.0884560856819L387.43363281250004,186.2770232776642L389.10841796874996,168.36710306663514L389.66667968750005,199.42401687030792L390.783203125,118.7434283241272L393.01625,136.07900550842282L393.57451171875,183.11988002700807L394.69103515625,100.56956343612671L395.249296875,196.2170576824188L395.80755859375,236.11070118303297L396.3658203125,109.87472482986448L396.92408203125,255.7306879993439L397.48234375,235.54232398490905L398.04060546875,256.94059182541366L399.15712890625,160.37474681816101L399.715390625,132.26280308113098L400.27365234375,174.83297280960082L400.8319140625,205.46966351604462L401.39017578125004,135.20578530693052L401.9484375,123.57326354370119L402.50669921875,230.06811009311676L404.181484375,177.811413319397L404.73974609375,154.67880334739687L405.2980078125,149.42098737792966L408.647578125,99.50920946578981L409.7641015625,162.02221949768065L410.32236328125,241.8545465447426L410.880625,85.91855839233398L411.43888671875,243.9239926361084L411.9971484375,261.33347449138165L412.55541015625,209.86224293251036L413.113671875,177.53679610481262L413.67193359375,173.19049048690795L414.2301953125,98.62075991287236L414.78845703125,79.66231130905152L415.34671875000004,94.95021871414184L415.90498046875,229.6203016685486L416.4632421875,230.78072336244583L417.02150390624996,74.58242323760987L417.57976562500005,225.994982695961L418.13802734375,248.71900374364853L418.6962890625,151.74320980148315L419.81281249999995,204.14577996311186L420.37107421875004,82.94177826004028L420.9293359375,153.26385731277466L422.04585937499996,245.09512376489639L423.1623828125,104.41663966064453L424.27890625,184.92190617904663L424.83716796875,155.40570739364625L425.3954296875,203.14749182624817L426.511953125,86.286940814209L427.07021484375,194.72163407268525L427.6284765625,223.54375816478728L428.745,132.5921389587402L429.30326171875004,195.96374864578246L429.8615234375,172.5944979824066L430.41978515625,66.50804434051514L430.97804687499996,68.40847553253172L431.53630859375005,236.79528174552917L432.0945703125,240.7366466574669L432.65283203125,225.74986946716308L433.76935546874995,232.32775703954695L434.32761718750004,64.32673262100218L434.88587890625,97.80877996826172L435.444140625,66.78920159759525L436.00240234374996,205.38736413784028L436.5606640625,56.79906068954466L437.11892578125,225.180678222847L437.6771875,218.51342313747406L438.23544921875,112.04510573081973L438.7937109375,64.2757036857605L439.35197265625,223.2781807832718L439.910234375,94.89625644531247L440.46849609375,123.5129364944458L441.0267578125,242.33521430130006L442.14328125,89.735932308197L442.70154296875,68.55270699157717L443.25980468750004,253.23758275175095L444.376328125,237.1055509548187L444.93458984374996,119.1379985889435L445.49285156250005,264.6786298750833L446.05111328125,234.09255845041275L447.16763671875,168.01402379074096L447.72589843749995,163.65076387367247L448.28416015625,76.87616096267703L448.84242187499996,73.14966504211424L449.40068359375005,261.11694685206413L449.9589453125,65.28013983154295L450.51720703125,185.06924623374937L451.63373046875,212.67682263145446L452.75025390624995,238.46093094654083L453.308515625,64.60622950057984L453.86677734375,60.67703838424683L455.5415625,254.9590131420851L457.77460937499995,236.8499196957588L458.33287109375004,177.78297474250795L458.8911328125,100.35744098587037L459.44939453125005,239.255898939991L460.00765625,243.55229176530838L460.56591796875,78.03043695373532L461.1241796875,141.14621014060975L461.68244140624995,72.40234757690433L463.35722656250005,225.998471794796L463.91548828125,263.13660352611544L464.47375,133.79662292060854L465.03201171875,186.76998935813904L466.14853515625,68.00349101104734L466.70679687499995,223.1404893667221L467.26505859375,52.56972866668701L468.38158203125005,247.0229085232258L468.93984375,215.13055617752076L469.49810546875,145.24817276039124L470.0563671875,58.62864910812374L470.61462890625,65.85872604522706L471.172890625,63.90501518402101L471.73115234374995,94.72077299194336L472.28941406250004,67.62669600982662L472.84767578125,228.03494786233904L473.40593750000005,174.48620296821596L473.96419921875,185.07435650672912L474.5224609375,134.68337519874572L475.08072265625,182.61884266700744L475.63898437499995,155.19222896842956L476.19724609375,66.20294075012208L476.75550781249996,60.29788195724484L478.43029296875,60.30651592025754L478.9885546875,64.3953984550476L480.105078125,55.56824129562375L481.2216015625,48.737761877441415L481.77986328125,56.81215922317506L482.33812500000005,66.04994618759156L482.89638671875,92.45963401184082L483.4546484375,170.36379925651548L484.01291015625,123.80020025100708L484.571171875,43.78681134338376L485.12943359375,55.775659342956544L485.68769531249995,238.91195865859984L486.80421875,240.92282801532744L487.36248046875005,202.46961042575836L487.9207421875,32.5807390930176L488.47900390625,212.11408379859924L489.037265625,140.67165580177306L490.1537890625,48.3384779853821L490.71205078124996,117.88939470710756L491.27031250000005,166.07990538406372L491.82857421875,45.1569179611206L492.3868359375,251.02276253876687L492.94509765625,239.6940587264061L493.503359375,245.14733341302872L494.06162109375,232.46568137016297L494.61988281249995,199.98932006397246L495.17814453125,72.11879199676514L495.73640625,65.01152764892578L496.29466796875005,214.63901064224245L496.8529296875,40.67886138839725L498.52771484375,259.1380455274582L499.64423828124995,39.80673888092042L500.76076171875,42.79159951705935L502.435546875,205.80047528476715L502.99380859375,233.955293658638L503.55207031249995,213.20687508831026L504.11033203125,206.8435474925995L504.66859374999996,214.25248859615326L505.22685546875005,232.7022390426636L505.7851171875,208.799462966156L506.34337890625,192.0677835281372L506.901640625,228.02518392019272L507.45990234375,220.21512559108734L508.0181640625,207.95024905605314L508.57642578124995,189.03629395713807L509.1346875,183.92377946777341L510.80947265625,193.63208513126375L511.367734375,170.69773806953432L511.92599609375,184.74553719100953L513.0425195312499,213.5388537334442L513.60078125,179.0142645767212L514.7173046875,197.51808798389436L515.27556640625,212.81248008556366L515.833828125,180.88127605934145L516.39208984375,176.50905010375976L516.9503515625,185.27656281356815L517.50861328125,208.70617742347716L519.1833984375,188.03498024349213L519.7416601562501,159.89265621032717L520.299921875,157.93649168014528L522.53296875,179.78411705436704L523.0912304687499,147.89596753921506L524.20775390625,198.0458297487259L524.766015625,189.4282168422699L525.32427734375,154.20212741508485L525.8825390625,198.32873040218354L526.44080078125,213.67468644962312L526.9990624999999,170.66635693473816L527.55732421875,151.1516357460022L528.1155859375001,178.81830313415526L528.67384765625,218.21268726234436L529.232109375,188.66806373653412L530.3486328125,197.5068850479126L530.90689453125,153.77315043869018L531.46515625,178.23692195167544L532.02341796875,261.5321029153109L532.5816796874999,178.7650511379242L533.13994140625,151.93824881210327L533.6982031250001,193.69839415168764L534.25646484375,162.95820196876525L535.93125,230.7120390797615L536.48951171875,186.82856378669737L537.6060351562501,173.4875596950531L538.164296875,184.66781307525636L538.72255859375,142.16775739898682L539.2808203125,143.63833530426027L539.83908203125,154.87083522987368L540.39734375,167.2033536994934L541.5138671875,159.83350064964293L542.0721289062501,154.53303142700196L542.630390625,167.0516966632843L543.18865234375,223.2962788980484L543.7469140625,156.87152555007935L544.30517578125,186.22391887054445L544.8634375,240.88770872507095L545.42169921875,182.90666910705568L547.096484375,152.5127671009064L547.6547460937501,248.66145436758995L548.77126953125,218.9456101770401L549.32953125,193.69545620594025L549.88779296875,181.5381029506683L550.4460546875,219.09543157367708L551.5625781250001,125.0572167121887L552.6791015625,137.01318001289366L553.23736328125,179.67167260017393L553.795625,187.38356802768706L554.35388671875,200.61082242393493L554.9121484374999,151.96298843688965L555.47041015625,192.80999533252717L556.0286718750001,159.86309226646424L556.58693359375,128.9318275302887L557.70345703125,160.60833425979612L558.26171875,146.17648059768678L558.81998046875,166.71838510398868L559.93650390625,180.06549569511412L561.05302734375,137.82248490486145L561.6112890625001,173.87792367019654L562.16955078125,152.50937255134582L562.7278125,178.3052926074982L563.28607421875,167.97957095756533L563.8443359375,158.20292692337037L564.9608593749999,160.78301519737244L565.5191210937501,158.24824600486755L566.0773828125,164.94741723556518L566.63564453125,161.3186622039795L567.19390625,247.66988845353126L567.75216796875,163.1187881462097L568.8686914062499,185.31054520645142L569.9852148437501,144.09533576316832L570.5434765625,183.08491063194276L571.66,150.48528013267517L572.21826171875,171.58473940429687L572.7765234375,145.9510935760498L574.4513085937499,156.44003033447268L575.0095703125,142.0686051891327L576.12609375,170.13801558914184L576.68435546875,156.69970415153503L577.80087890625,160.91214644546505L578.359140625,157.10274234161375L578.9174023437499,163.4732879673004L579.4756640625001,130.20654546051028L580.03392578125,174.10599496879576L580.5921875,151.30344037132264L582.26697265625,243.50686429805756L582.8252343749999,135.70241344223024L583.9417578125001,143.19257929077148L584.50001953125,154.26407794456483L585.05828125,155.3921845413208L585.61654296875,139.17293449783324L586.73306640625,147.2568882385254L587.291328125,149.5738343513489L587.84958984375,136.78948104171752L588.4078515624999,159.72308554573058L589.5243750000001,226.8109636891365L590.6408984375,157.1308119457245L591.757421875,137.4843398021698L592.31568359375,144.5887169380188L592.8739453124999,156.8337058403015L593.4322070312501,156.6004412498474L593.99046875,142.71298847351073L596.223515625,133.64371137695312L596.7817773437499,129.42519025650026L597.3400390625,144.09556637115477L597.8983007812501,152.87362247810364L598.4565625,134.414550856781L599.5730859375,141.58477118492124L600.13134765625,144.46804439086915L600.689609375,134.93670268402101L601.24787109375,160.54027723083496L601.8061328125,122.62752174263002L602.3643945312499,142.84632601127626L602.92265625,129.96606745224L603.4809179687501,135.038631414032L604.0391796875,146.74048316230773L604.59744140625,146.23610659866333L605.71396484375,144.48013747367858L606.2722265625,118.78648744735716L606.8304882812499,156.52185004806518L607.3887500000001,129.3493940235138L607.94701171875,132.30673851470948L608.5052734375,143.45284346427917L609.06353515625,153.07543213920596L610.18005859375,117.53794813575746L610.7383203124999,136.393757736969L611.29658203125,159.42009432449342L611.8548437500001,143.31694156570435L612.41310546875,142.128950687027L612.9713671875,140.28418826293947L613.52962890625,262.7722836963117L614.087890625,128.70772268905637L614.64615234375,126.87533007736207L616.87919921875,131.45744619789124L617.4374609375001,146.8691716430664L618.553984375,139.0997579715729L619.11224609375,121.57607846488952L619.6705078125,140.73403987426758L620.22876953125,142.3215729259491L620.7870312499999,146.2487623649597L621.3452929687501,264.26721630921287L621.9035546875,106.14204861526486L623.020078125,124.07711432113646L623.57833984375,137.6592328990936L624.1366015625,122.27954351539609L624.6948632812499,138.17332267112732L625.8113867187501,120.22700329551697L626.3696484375,142.13383035202028L626.92791015625,143.43100950012206L627.486171875,135.0387144329071L628.04443359375,125.76377190971377L628.6026953125,121.72260677947997L629.71921875,128.95177050895688L630.2774804687499,104.11378680419921L631.3940039062501,121.54258496093752L631.952265625,119.52452524719234L632.51052734375,113.25630499725338L633.0687890625,133.54716042518615L633.62705078125,136.28121181526186L634.1853125,120.19782677307131L635.3018359375001,126.92871121406554L636.418359375,126.58937617416382L638.09314453125,131.138100258255L638.6514062499999,106.35989014358523L639.20966796875,132.59599472427365L639.7679296875001,132.3935670337677L640.884453125,131.45714179534912L641.44271484375,137.22553307113645L642.0009765625,121.21620086555481L643.1175,126.32173254508973L643.67576171875,130.11784440460207L644.2340234374999,110.5503970058441L644.79228515625,130.80437360458373L645.90880859375,120.47454713249209L646.4670703125,263.03474988783L647.02533203125,117.16499967575072L647.58359375,112.59861101989748L648.14185546875,125.97243524017335L648.7001171874999,122.41473514137266L649.2583789062501,261.351185473001L649.816640625,119.51037514114381L650.37490234375,118.50588364944457L651.49142578125,129.39711142807008L652.0496875,238.80544082965852L653.1662109375,125.9879136482239L654.282734375,120.43125740127562L654.84099609375,126.39212332687376L655.95751953125,249.61843830800058L657.07404296875,110.20799026756288L657.6323046875,122.07851792144774L658.1905664062499,117.31275482482909L658.748828125,127.17166133995056L660.42361328125,124.15559483108521L660.981875,224.09272047653198L661.54013671875,115.21029258804322L662.0983984375,115.28516638908388L663.2149218750001,243.8581448316574L663.77318359375,127.87540312004089L664.3314453125,107.31213508987423L664.88970703125,126.47630446624754L665.44796875,122.66958463935853L667.12275390625,120.25249931449889L668.23927734375,259.4738407347679L668.7975390625,100.0399030128479L669.9140625,98.5192370529175L670.47232421875,125.57890732345581L671.58884765625,263.25879332968594L672.1471093749999,123.83920067367552L672.70537109375,131.37195520515442L673.2636328125001,122.2561506412506L674.38015625,126.1836813800812L674.93841796875,120.67939159469603L675.4966796875,124.1160317249298L676.6132031249999,112.38455146255495L677.1714648437501,134.96426495056153L677.7297265625,118.47655953788757L678.28798828125,114.27628412132265L679.40451171875,110.21171689262388L679.9627734375,119.95005232810973L681.079296875,110.1209772621155L682.1958203125,118.80938220825198L682.75408203125,105.94523853530887L683.87060546875,108.2790098068237L684.4288671875,118.5610819770813L684.98712890625,125.27727207717896L685.545390625,119.95480285263062L686.6619140625,123.57841071395876L687.7784375,113.78054152069092L688.33669921875,116.52348515472414L688.8949609375,113.1578353870392L689.45322265625,110.24365148658751L690.011484375,104.97871434249879L690.5697460937499,120.20689427909849L691.1280078125001,115.14393283386232L691.68626953125,262.55044198420643L692.24453125,107.98432969741822L692.80279296875,118.1903750267029L693.91931640625,118.46562871932986L694.4775781249999,120.49513581352232L695.03583984375,100.26794663848881L695.5941015625001,114.95357977752684L697.26888671875,116.13259539337162L697.8271484375,114.76937934226987L698.38541015625,112.51460514259338L698.943671875,121.98135816459654L699.50193359375,111.39037276000977L700.61845703125,126.25386922683717L701.1767187500001,120.5948691555023L701.73498046875,110.35062591934201L702.2932421875,120.05456386756896L702.85150390625,121.040966468811L705.6428125,114.31624387321472L706.20107421875,131.81835692100523L706.7593359375,109.25879857101438L707.31759765625,113.42238886909485L707.875859375,106.7702432189941L708.4341210937499,128.22414696578983L709.5506445312501,197.5744024541855L710.10890625,122.05949737472534L710.66716796875,113.38455071067807L711.2254296875,108.9503926742554L711.78369140625,113.6873205482483L712.341953125,120.05728504180911L712.90021484375,112.60891458473208L713.4584765625,109.38858474578859L714.0167382812499,114.53933403930665L714.575,119.79071143379213L715.1332617187501,117.07422314796446L715.6915234375,114.48817596359254L716.24978515625,114.20949082412716L716.808046875,123.49648953285217L717.36630859375,125.86154969596865L717.9245703125,109.22310045471193L718.4828320312499,236.44755718708038L719.59935546875,118.54111132545472L720.71587890625,114.79915544548032L721.274140625,114.32685184059142L721.83240234375,124.0782027908325L722.3906640624999,105.71490727844235L722.94892578125,100.80708966217043L724.06544921875,104.21221029281617L725.18197265625,116.82479754981995L725.740234375,111.03281046485898L726.8567578125,224.22827646312714L727.9732812499999,245.69877476062774L728.53154296875,120.64665448493957L729.0898046875001,104.2735520172119L729.64806640625,112.40012211380008L730.206328125,118.012963690567L731.88111328125,103.62100521011354L732.4393749999999,115.49475215148925L734.11416015625,115.25372068405153L734.672421875,124.98726869773864L735.23068359375,114.51768456153872L736.90546875,129.99445068321228L737.4637304687501,100.69647162322997L738.58025390625,101.9030126083374L739.138515625,110.40371187782284L739.69677734375,104.50388327407836L740.2550390625,184.76991706733702L740.81330078125,110.90910311660764L741.3715625,104.71209461288453L741.9298242187499,114.1259922843933L742.4880859375,104.65641662063598L743.0463476562501,110.0098426612854L743.604609375,120.50362218742373L744.7211328125,99.60433064804073L745.27939453125,122.02844831542967L745.83765625,112.03951579322813L746.9541796875001,119.41932188377376L747.51244140625,107.81962024917601L748.070703125,118.76347277030948L748.62896484375,106.34841509017946L749.1872265625,104.91159819412229L749.74548828125,236.31684166212082L750.3037499999999,113.4806404464722L750.86201171875,113.36055825576784L751.97853515625,122.83023538703918L752.536796875,112.77164080429077L753.6533203125,117.87529072265625L754.21158203125,112.86068316001894L754.76984375,108.75902494277955L755.32810546875,117.65783661575318L755.8863671874999,118.88287236137387L756.44462890625,119.29300405311585L757.0028906250001,109.26691597213744L757.56115234375,104.53751514282226L758.1194140625,114.99383470764161L758.67767578125,101.03465362319946L759.2359375,113.50680061645505L759.79419921875,116.99992125473022L760.3524609374999,115.88645365295412L760.9107226562501,112.08212292480471L762.02724609375,115.80428341522219L762.5855078125,101.36774379882814L763.14376953125,99.62593400421144L763.70203125,113.43236958274838L764.8185546875,116.99502314109805L765.3768164062501,114.34003339309692L767.60986328125,120.33440204696655L768.72638671875,118.61545011596678L769.2846484375,181.3063972702026L770.401171875,106.09747670364379L770.9594335937501,112.94221691970824L771.5176953125,109.31964218215944L772.07595703125,114.89513448944092L772.63421875,101.60384947967532L773.7507421875,102.28735310287476L774.3090039062499,119.33456883659363L774.8672656250001,116.4903145019531L775.42552734375,102.64520135192868L775.9837890625,124.36643510093691L776.54205078125,106.48829267044067L777.1003125,100.38979989852908L777.65857421875,106.39937023086549L778.2168359374999,112.96302698440553L778.77509765625,110.86402386741639L779.3333593750001,100.74792487716678L779.89162109375,103.76599306335453L780.4498828125,116.11089979400634L781.00814453125,108.59359599761962L781.56640625,102.11030151519776L782.12466796875,116.31838241157533L782.6829296875,171.79878051300048L783.7994531249999,104.91991853027343L784.35771484375,107.97551124801635L785.47423828125,177.17268454284667L786.0325,113.20011044311525L786.59076171875,113.66188909950256L787.70728515625,110.64907877540588L788.2655468749999,122.09954936981202L788.8238085937501,112.99683411521909L789.3820703125,113.42996203536984L789.94033203125,108.8633519958496L790.49859375,114.53209294853207L791.6151171875,102.61926256561276L792.731640625,101.07697480087279L793.8481640625,100.21802462158206L795.52294921875,105.10816844177242L796.0812109375,128.1420136253357L796.63947265625,105.60480580139159L797.197734375,261.81516960651874L797.7559960937499,102.10008096923826L798.3142578125,110.41958693161013L799.43078125,255.12095875360967L799.98904296875,111.39861007728575L800.5473046875,106.0926431602478L801.10556640625,103.95416918029787L801.663828125,108.45255615310668L802.2220898437499,98.93665595703123L802.7803515625001,118.02991798973085L803.33861328125,106.40962767410281L803.896875,183.92183313636778L804.45513671875,98.43024081878661L805.57166015625,108.36177040100097L806.1299218749999,105.60696429214477L806.68818359375,115.86109599876403L807.80470703125,112.94174647941588L808.36296875,110.40535380668638L808.92123046875,102.68320554809571L809.4794921875,102.14210696868895L810.03775390625,100.19020407409664L810.596015625,102.29543360671994L811.15427734375,109.71586360015868L811.7125390624999,116.87946086692807L812.27080078125,99.40610002288815L812.8290625000001,100.25455292663571L813.38732421875,112.90909238853453L813.9455859375,117.39591206474307L814.50384765625,103.38868150024416L815.062109375,107.03964869308476L816.1786328124999,102.86669571075441L816.7368945312501,95.0656887451172L817.29515625,108.61086392364501L817.85341796875,107.07156483840942L818.4116796875,111.70241303863526L818.96994140625,209.71646639995575L819.528203125,112.80128776702878L820.0864648437499,105.29431520843502L820.6447265625,109.73107450294492L821.76125,97.82872294692993L822.31951171875,98.32030537948611L823.43603515625,98.0205703430176L825.1108203125,103.22233012313842L825.6690820312499,112.83959636573792L826.22734375,96.80733250198364L827.3438671875,112.59621269683839L827.90212890625,109.82135291748045L828.460390625,99.32669708099365L829.5769140625,106.5618289451599L830.6934375000001,104.34967110137939L831.25169921875,109.67594074554444L831.8099609375,99.23074570999148L832.36822265625,103.44863957672118L832.926484375,103.13560307159423L833.48474609375,104.89984641113284L834.0430078124999,93.60202907943727L834.60126953125,96.64896938552857L835.71779296875,95.24464054260255L836.2760546875,168.9415844581604L836.83431640625,148.68046823616027L837.392578125,100.15533614654544L837.95083984375,100.42773030014041L839.06736328125,231.00478438816072L839.6256249999999,110.27683136367801L840.18388671875,92.52796777038571L841.30041015625,95.33027912445067L841.858671875,95.16846611251827L842.41693359375,93.27786804504393L842.9751953125,93.16437201843257L843.53345703125,93.7441204963684L844.0917187499999,97.96295524368287L844.6499804687501,241.07529909772873L845.2082421875,101.14355593872068L846.324765625,101.52470481872558L846.88302734375,105.53436889801026L847.4412890625,88.33774686203003L847.9995507812499,99.41823922729492" style="fill: none;" fill="none"></path></g></g></g></g></g></g><g transform="translate(78, 377)" clip-path="url(#clip_1)"><clipPath id="clip_1"><rect width="893" height="22"></rect></clipPath><g><g><line x1="0" y1="0" x2="0" y2="5" style="visibility: inherit;" fill="rgb(0, 0, 0)" stroke="rgb(204, 204, 204)" stroke-width="1px"></line><line x1="111.65234375" y1="0" x2="111.65234375" y2="5" style="visibility: inherit;" fill="rgb(0, 0, 0)" stroke="rgb(204, 204, 204)" stroke-width="1px"></line><line x1="223.3046875" y1="0" x2="223.3046875" y2="5" style="visibility: inherit;" fill="rgb(0, 0, 0)" stroke="rgb(204, 204, 204)" stroke-width="1px"></line><line x1="334.95703125" y1="0" x2="334.95703125" y2="5" style="visibility: inherit;" fill="rgb(0, 0, 0)" stroke="rgb(204, 204, 204)" stroke-width="1px"></line><line x1="446.609375" y1="0" x2="446.609375" y2="5" style="visibility: inherit;" fill="rgb(0, 0, 0)" stroke="rgb(204, 204, 204)" stroke-width="1px"></line><line x1="558.26171875" y1="0" x2="558.26171875" y2="5" style="visibility: inherit;" fill="rgb(0, 0, 0)" stroke="rgb(204, 204, 204)" stroke-width="1px"></line><line x1="669.9140625" y1="0" x2="669.9140625" y2="5" style="visibility: inherit;" fill="rgb(0, 0, 0)" stroke="rgb(204, 204, 204)" stroke-width="1px"></line><line x1="781.56640625" y1="0" x2="781.56640625" y2="5" style="visibility: inherit;" fill="rgb(0, 0, 0)" stroke="rgb(204, 204, 204)" stroke-width="1px"></line><line x1="893.21875" y1="0" x2="893.21875" y2="5" style="visibility: inherit;" fill="rgb(0, 0, 0)" stroke="rgb(204, 204, 204)" stroke-width="1px"></line></g><g transform="translate(0, 8)"><text x="0" y="0" dx="0em" dy="0.95em" style="text-anchor: middle; visibility: hidden; font-family: &quot;Helvetica Neue&quot;, sans-serif; font-size: 12px; font-weight: 200;" fill="rgb(50, 49, 63)" stroke="none" stroke-width="1px">-200</text><text x="111.65234375" y="0" dx="0em" dy="0.95em" style="text-anchor: middle; visibility: inherit; font-family: &quot;Helvetica Neue&quot;, sans-serif; font-size: 12px; font-weight: 200;" fill="rgb(50, 49, 63)" stroke="none" stroke-width="1px">0</text><text x="223.3046875" y="0" dx="0em" dy="0.95em" style="text-anchor: middle; visibility: inherit; font-family: &quot;Helvetica Neue&quot;, sans-serif; font-size: 12px; font-weight: 200;" fill="rgb(50, 49, 63)" stroke="none" stroke-width="1px">200</text><text x="334.95703125" y="0" dx="0em" dy="0.95em" style="text-anchor: middle; visibility: inherit; font-family: &quot;Helvetica Neue&quot;, sans-serif; font-size: 12px; font-weight: 200;" fill="rgb(50, 49, 63)" stroke="none" stroke-width="1px">400</text><text x="446.609375" y="0" dx="0em" dy="0.95em" style="text-anchor: middle; visibility: inherit; font-family: &quot;Helvetica Neue&quot;, sans-serif; font-size: 12px; font-weight: 200;" fill="rgb(50, 49, 63)" stroke="none" stroke-width="1px">600</text><text x="558.26171875" y="0" dx="0em" dy="0.95em" style="text-anchor: middle; visibility: inherit; font-family: &quot;Helvetica Neue&quot;, sans-serif; font-size: 12px; font-weight: 200;" fill="rgb(50, 49, 63)" stroke="none" stroke-width="1px">800</text><text x="669.9140625" y="0" dx="0em" dy="0.95em" style="text-anchor: middle; visibility: inherit; font-family: &quot;Helvetica Neue&quot;, sans-serif; font-size: 12px; font-weight: 200;" fill="rgb(50, 49, 63)" stroke="none" stroke-width="1px">1k</text><text x="781.56640625" y="0" dx="0em" dy="0.95em" style="text-anchor: middle; visibility: inherit; font-family: &quot;Helvetica Neue&quot;, sans-serif; font-size: 12px; font-weight: 200;" fill="rgb(50, 49, 63)" stroke="none" stroke-width="1px">1.2k</text><text x="893.21875" y="0" dx="0em" dy="0.95em" style="text-anchor: middle; visibility: hidden; font-family: &quot;Helvetica Neue&quot;, sans-serif; font-size: 12px; font-weight: 200;" fill="rgb(50, 49, 63)" stroke="none" stroke-width="1px">1.4k</text></g><line x1="0" y1="0" x2="893.21875" y2="0" fill="rgb(0, 0, 0)" stroke="rgb(204, 204, 204)" stroke-width="1px"></line></g></g></g></g></svg>